#!OML:ASF H:\Dans Jumps\Project 1\Capture day 1\Session 1\subject.ASF
:FULLY-SPECIFIED
:DEGREES
432
root 0.315898 17.7115 -2.21237 6.36263 0.167012 -1.13165
lowerback -0.188858 -1.14951 -0.547981
upperback 2.47832 -1.57205 2.04659
thorax 2.72254 -0.823191 2.36958
lowerneck -11.542 0.602155 -1.85272
upperneck 37.3649 1.10136 0.720894
head 14.8713 0.294092 0.800682
rclavicle 1.85864e-014 -7.95139e-015
rhumerus -26.6426 -21.9698 -73.9111
rradius 21.2605
rwrist 37.5166
rhand -22.2447 -27.0877
rfingers 7.12502
rthumb 4.17245 -57.0266
lclavicle 1.85864e-014 -7.95139e-015
lhumerus -20.1131 -5.1422 87.5549
lradius 18.6865
lwrist 8.36711
lhand -27.6585 -6.09962
lfingers 7.12502
lthumb -1.0561 23.8775
rfemur -16.8722 -3.14675 19.3712
rtibia 24.6828
rfoot -12.4179 -2.83445
rtoes 15.0614
lfemur -15.2506 6.32544 -17.9436
ltibia 20.6249
lfoot -9.8192 1.69581
ltoes 3.80061
433
root 0.31552 17.7192 -2.20635 6.46431 0.111768 -1.15193
lowerback -0.223789 -1.13155 -0.523977
upperback 2.49191 -1.54838 2.02545
thorax 2.75384 -0.810829 2.33413
lowerneck -11.5151 0.599425 -1.84439
upperneck 37.4244 1.09324 0.723876
head 14.894 0.291399 0.799528
rclavicle 7.30534e-015 1.15295e-014
rhumerus -26.6489 -21.7042 -74.1364
rradius 21.4024
rwrist 37.0059
rhand -22.1092 -27.0325
rfingers 7.12502
rthumb 4.30336 -56.9688
lclavicle 7.30534e-015 1.15295e-014
lhumerus -20.3443 -5.09117 87.5375
lradius 18.6677
lwrist 8.54187
lhand -27.6968 -6.0879
lfingers 7.12502
lthumb -1.0931 23.889
rfemur -16.8459 -3.14608 19.3959
rtibia 24.4418
rfoot -12.3123 -2.75447
rtoes 15.1769
lfemur -15.2085 6.31203 -17.9245
ltibia 20.3904
lfoot -9.71187 1.73408
ltoes 3.89706
434
root 0.315037 17.7269 -2.19995 6.56286 0.0608771 -1.17761
lowerback -0.258305 -1.11523 -0.499274
upperback 2.50304 -1.52705 2.0108
thorax 2.78267 -0.799659 2.30496
lowerneck -11.4936 0.597839 -1.83942
upperneck 37.4756 1.09133 0.71783
head 14.9139 0.289772 0.796137
rclavicle -1.05853e-014 1.03368e-014
rhumerus -26.659 -21.4 -74.3686
rradius 21.5426
rwrist 36.5424
rhand -21.9888 -26.9554
rfingers 7.12502
rthumb 4.41962 -56.8893
lclavicle -1.05853e-014 1.03368e-014
lhumerus -20.5793 -5.05327 87.5372
lradius 18.6454
lwrist 8.72117
lhand -27.6862 -6.01284
lfingers 7.12502
lthumb -1.08283 23.9642
rfemur -16.808 -3.13923 19.4268
rtibia 24.1897
rfoot -12.205 -2.68714
rtoes 15.2785
lfemur -15.1591 6.29481 -17.899
ltibia 20.1502
lfoot -9.60355 1.77487
ltoes 3.99369
435
root 0.314418 17.7346 -2.19314 6.66039 0.0151759 -1.20214
lowerback -0.299433 -1.101 -0.483197
upperback 2.51436 -1.50859 2.00262
thorax 2.81602 -0.79023 2.28713
lowerneck -11.481 0.597259 -1.839
upperneck 37.518 1.09622 0.70183
head 14.9317 0.289172 0.790437
rclavicle 7.40473e-015 -3.57812e-015
rhumerus -26.6718 -21.0547 -74.6072
rradius 21.6878
rwrist 36.1142
rhand -21.8793 -26.8749
rfingers 7.12502
rthumb 4.52528 -56.8066
lclavicle 7.40473e-015 -3.57812e-015
lhumerus -20.8112 -5.01132 87.5513
lradius 18.612
lwrist 8.84574
lhand -27.6363 -5.90876
lfingers 7.12502
lthumb -1.03465 24.0685
rfemur -16.7626 -3.12689 19.4568
rtibia 23.9304
rfoot -12.0983 -2.63467
rtoes 15.358
lfemur -15.1063 6.27681 -17.8754
ltibia 19.9073
lfoot -9.49537 1.81703
ltoes 4.06523
